# xmcd CD database file
#
# Track frame offsets:
#	150
#	13742
#	19671
#	33912
#	49224
#	67766
#	78620
#	90005
#	106076
#	125503
#	136259
#	149558
#
# Disc length: 2200 seconds
#
# Revision: 1
# Processed by: cddbd v1.4PL0 Copyright (c) Steve Scherf et al.
# Submitted via: CDValet v3.40 - Copyright (c) 1996 - 1998 Greg Leichner
#
DISCID=9208960c
DTITLE=Steagall, Red and The Boys In The Bunkhouse - Wagon Tracks
DYEAR=1900
DGENRE=
TTITLE0=If I Never See Ireland Again
TTITLE1=Western Wagons
TTITLE2=Through The Cumberland Gap
TTITLE3=Gone To Texas
TTITLE4=We'll Stand Up And Fight
TTITLE5=Out On The Texas Plains
TTITLE6=The Last Buffalo
TTITLE7=Texas Bein' Texas
TTITLE8=The Yellowstone Valley
TTITLE9=My Nebraska Homestead
TTITLE10=We Danced On The Oregon Trail
TTITLE11=My America
EXTD=
EXTT0=
EXTT1=
EXTT2=
EXTT3=
EXTT4=
EXTT5=
EXTT6=
EXTT7=
EXTT8=
EXTT9=
EXTT10=
EXTT11=
PLAYORDER=
